<?xml version="1.0" encoding="UTF-8"?>
<svg width="16px" height="16px" version="1.1" viewBox="0 0 16 16" xmlns="http://www.w3.org/2000/svg">
 <path d="m12 3c0-0.57031-0.42969-1-1-1h-8c-0.57031 0-1 0.42969-1 1v10c0 0.57031 0.42969 1 1 1h8c0.57031 0 1-0.42969 1-1h2c0 1.6445-1.3555 3-3 3h-8c-1.6445 0-3-1.3555-3-3v-10c0-1.6445 1.3555-3 3-3h8c1.6445 0 3 1.3555 3 3" />
 <path d="m10.594 4v1c0 0.25781 0.12891 0.52734 0.3125 0.71875l1.2812 1.2812h-7.5938v2h7.5938l-1.2812 1.2812c-0.18359 0.19141-0.3125 0.41016-0.3125 0.71875v1h1c0.30859 0 0.55078-0.08984 0.75-0.28125l3.6562-3.7188-3.6562-3.7188c-0.19922-0.19141-0.44141-0.28125-0.75-0.28125z" />
</svg>
