<?xml version="1.0" encoding="UTF-8"?>
<!-- Created with qrencode 4.1.1 (https://fukuchi.org/works/qrencode/index.html) -->
<svg width="16px" height="16px" preserveAspectRatio="none" version="1.1" viewBox="0 0 16 16" xmlns="http://www.w3.org/2000/svg">
 <path d="m2 1v7h7v-7h-7zm1 1h5v5h-5v-5zm1 1v3h3v-3h-3z"/>
 <path d="m10 1v2h1v1h1v-1h1v-2h-1v1h-1v-1h-1z"/>
 <path d="m14 1v2h1v-2h-1z"/>
 <path d="m13 3v2h1v-2h-1z"/>
 <path d="m10 5v2h1v-2h-1z"/>
 <rect x="14" y="5" width="1" height="1"/>
 <path d="m12 7v1h-1v1h-1v2h1v-1h1v-1h1v-1h2v-1h-3z"/>
 <path d="m2 9v1h1v1h-1v1h2v-3h-2z"/>
 <path d="m5 9v3h-1v1h-2v1h5v-1h-1v-1h1v-1h-1v-2h-1z"/>
 <path d="m13 9v2h-1v1h1v1h2v-4h-2z"/>
 <path d="m7 12v1h1v1h1v-1h2v-1h-4z"/>
 <rect x="12" y="13" width="1" height="1"/>
</svg>
