<?xml version="1.0" encoding="UTF-8" standalone="no"?>
<!-- Created with Inkscape (http://www.inkscape.org/) -->

<svg
   width="15.999999"
   height="15.999999"
   viewBox="0 0 4.233333 4.233333"
   version="1.1"
   id="svg182"
   xml:space="preserve"
   sodipodi:docname="qr-scan.svg"
   inkscape:version="1.2.2 (b0a8486541, 2022-12-01)"
   inkscape:export-filename="qr-scan-simple.svg"
   inkscape:export-xdpi="96"
   inkscape:export-ydpi="96"
   xmlns:inkscape="http://www.inkscape.org/namespaces/inkscape"
   xmlns:sodipodi="http://sodipodi.sourceforge.net/DTD/sodipodi-0.dtd"
   xmlns="http://www.w3.org/2000/svg"
   xmlns:svg="http://www.w3.org/2000/svg"><sodipodi:namedview
     id="namedview184"
     pagecolor="#505050"
     bordercolor="#ffffff"
     borderopacity="1"
     inkscape:showpageshadow="0"
     inkscape:pageopacity="0"
     inkscape:pagecheckerboard="1"
     inkscape:deskcolor="#505050"
     inkscape:document-units="px"
     showgrid="false"
     shape-rendering="crispEdges"
     inkscape:zoom="32"
     inkscape:cx="5.03125"
     inkscape:cy="8.84375"
     inkscape:window-width="1920"
     inkscape:window-height="1011"
     inkscape:window-x="0"
     inkscape:window-y="32"
     inkscape:window-maximized="1"
     inkscape:current-layer="layer1" /><defs
     id="defs179" /><g
     inkscape:label="Layer 1"
     inkscape:groupmode="layer"
     id="layer1"><rect
       style="fill:#ffffff;stroke:none;stroke-width:1.90791;stroke-linejoin:miter;stroke-dasharray:none;stroke-opacity:1"
       id="rect933"
       width="4.2333331"
       height="4.2333331"
       x="0"
       y="-6.9388939e-18" /><path
       style="fill:#000000;stroke-width:0.0264583"
       d="M 1.1906247,3.7041663 H 0.52916667 v -0.132291 -0.132292 h 0.264583 0.26458403 v -0.132292 -0.132291 h -0.26458403 -0.264583 v -0.132292 -0.132292 h 0.132292 0.132291 v -0.132291 -0.132292 h -0.132291 -0.132292 v -0.132292 -0.132291 h 0.264583 0.26458403 v 0.396875 0.396875 h 0.132291 0.1322919 v -0.396875 -0.396875 h 0.132292 0.132291 v 0.264583 0.264583 h 0.132292 0.132292 v 0.132292 0.132292 h 0.529166 0.529167 v 0.132291 0.132292 h -0.264583 -0.264584 v 0.132292 0.132291 h -0.132291 -0.132292 v -0.132291 -0.132292 h -0.132292 -0.132291 v 0.132292 0.132291 z m 0.5291669,-0.264583 h 0.132292 v -0.132292 -0.132291 h -0.132292 -0.132292 v 0.132291 0.132292 z m 1.5875,0.264583 h -0.132292 v -0.132291 -0.132292 h 0.132292 0.132292 v -0.132292 -0.132291 h -0.132292 -0.132292 v -0.132292 -0.132292 h 0.132292 0.132292 v -0.264583 -0.264583 h -0.132292 -0.132292 v 0.132291 0.132292 h -0.132291 -0.132292 v 0.132292 0.132291 h -0.132292 -0.132291 v -0.264583 -0.264583 h 0.132291 0.132292 v -0.132292 -0.132292 h 0.132292 0.132291 v -0.132291 -0.132292 h 0.396875 0.396875 v 0.132292 0.132291 h -0.264583 -0.264583 v 0.132292 0.132292 h 0.264583 0.264583 v 0.529166 0.529167 h -0.264583 -0.264583 v 0.132292 0.132291 z m -1.852083,-1.5875 H 0.52916667 V 1.1906253 0.26458333 h 0.92604193 0.926041 v 0.92604197 0.926041 z m 0,-0.264583 h 0.661458 V 1.1906253 0.52916633 H 1.4552086 0.79374967 v 0.66145897 0.661458 z m 0,-0.264583 H 1.0583337 V 1.1906253 0.79375033 h 0.3968749 0.396875 v 0.39687497 0.396875 z m 1.322916,0.264583 h -0.132291 v -0.264583 -0.264584 h 0.132291 0.132292 v 0.264584 0.264583 z m 1.058334,-0.264583 H 3.7041666 V 1.4552083 1.3229163 H 3.5718746 3.4395836 V 1.0583333 0.79375033 h -0.132292 -0.132292 v 0.132291 0.13229197 h -0.132291 -0.132292 v -0.13229197 -0.132291 h -0.132292 -0.132291 v -0.264584 -0.264583 h 0.132291 0.132292 v 0.132292 0.132291 h 0.132292 0.132291 v -0.132291 -0.132292 h 0.132292 0.132292 v 0.264583 0.264584 h 0.132291 0.132292 v -0.264584 -0.264583 h 0.132292 0.132291 v 0.264583 0.264584 h -0.132291 -0.132292 v 0.26458297 0.264583 h 0.132292 0.132291 v 0.132292 0.132292 z"
       id="path846" /></g></svg>
